<svg width="100%" height="100%" viewBox="0 0 986 294" fill="none" xmlns="http://www.w3.org/2000/svg">
    <path d="M80.8714 207.741C84.2081 210.582 86.866 213.478 88.8453 216.429C90.7993 219.358 92.1663 222.31 92.9463 225.286C93.7479 228.237 94.022 231.218 93.7686 234.23C93.5367 237.216 92.8564 240.191 91.7277 243.155C90.599 246.119 89.1047 249.077 87.2449 252.029C85.3598 254.959 83.2008 257.852 80.7681 260.708L52.6083 293.772L0.51123 249.401L28.6064 216.413C31.0391 213.557 33.5646 210.976 36.1827 208.67C38.7756 206.342 41.4453 204.386 44.1918 202.8C46.9598 201.188 49.8102 200.018 52.7431 199.288C55.6506 198.537 58.6374 198.333 61.7032 198.677C64.7654 198.973 67.8978 199.853 71.1004 201.316C74.3031 202.779 77.5601 204.92 80.8714 207.741ZM68.7937 221.921C66.2913 219.79 63.8375 218.267 61.4325 217.353C59.049 216.413 56.6497 216.158 54.2345 216.587C51.8156 216.969 49.3358 218.062 46.7953 219.867C44.2295 221.651 41.5365 224.199 38.7162 227.51L23.829 244.989L53.2521 270.049L68.1393 252.569C70.9596 249.258 73.0586 246.205 74.4364 243.409C75.7888 240.592 76.4612 237.959 76.4535 235.51C76.442 233.015 75.7828 230.665 74.4757 228.462C73.1902 226.233 71.2962 224.053 68.7937 221.921Z" fill="white"/>
    <path d="M136.926 204.092L122.552 215.703L79.552 162.468L115.584 133.364C119.459 130.234 123.062 127.985 126.395 126.616C129.754 125.226 132.868 124.589 135.736 124.705C138.63 124.8 141.296 125.592 143.735 127.079C146.179 128.519 148.434 130.518 150.499 133.075C152.315 135.322 153.577 137.546 154.288 139.747C155.024 141.926 155.34 144.061 155.236 146.151C155.136 148.195 154.71 150.204 153.957 152.178C153.204 154.152 152.259 156.046 151.122 157.862L185.55 164.817L168.735 178.399L136.782 171.813L121.09 184.488L136.926 204.092ZM135.908 144.733C135.073 143.7 134.222 142.937 133.354 142.443C132.511 141.928 131.577 141.723 130.55 141.826C129.503 141.904 128.328 142.298 127.025 143.009C125.747 143.7 124.269 144.723 122.59 146.079L102.908 161.977L112.109 173.368L131.791 157.47C133.47 156.114 134.781 154.884 135.725 153.78C136.694 152.656 137.338 151.603 137.654 150.621C137.951 149.614 137.936 148.644 137.61 147.712C137.31 146.759 136.742 145.767 135.908 144.733Z" fill="white"/>
    <path d="M201.018 155.55L167.892 95.6697L228.513 62.1345L235.577 74.9036L191.56 99.2534L197.033 109.146L238.783 86.0501L245.847 98.8192L204.097 121.915L210.558 133.595L255.185 108.908L262.248 121.677L201.018 155.55Z" fill="white"/>
    <path d="M330.123 82.5973L294.057 95.0336L292.204 109.37L272.711 116.091L284.257 39.7244L303.75 33.003L359.911 86.0233L340.418 92.7448L330.123 82.5973ZM295.968 80.2558L319.604 72.1056L299.618 52.3398L295.968 80.2558Z" fill="white"/>
    <path d="M461.562 70.9926L455.636 23.2978L436.355 74.1245L418.76 76.3107L387.628 31.7479L393.554 79.4426L375.217 81.721L366.779 13.8115L391.689 10.7164L425.507 58.7098L446.551 3.89988L471.362 0.817078L479.8 68.7265L461.562 70.9926Z" fill="white"/>
    <path d="M505.558 71.0561L508.027 2.66905L526.493 3.33581L524.023 71.7229L505.558 71.0561Z" fill="white"/>
    <path d="M613.384 83.5236L576.255 29.0852L567.942 75.36L549.756 72.0927L561.856 4.73938L581.611 8.2884L618.753 62.9317L627.101 16.4608L645.19 19.7105L633.09 87.0638L613.384 83.5236Z" fill="white"/>
    <path d="M658.176 94.836L682.458 30.8571L747.228 55.439L742.05 69.0822L695.021 51.2334L691.009 61.8035L735.617 78.7333L730.44 92.3766L685.831 75.4467L681.095 87.9259L728.777 106.022L723.599 119.665L658.176 94.836Z" fill="white"/>
    <path d="M743.337 129.434L777.965 70.4098L837.719 105.466L830.335 118.052L786.948 92.5983L781.227 102.35L822.38 126.493L814.996 139.08L773.843 114.936L767.088 126.449L811.077 152.256L803.693 164.842L743.337 129.434Z" fill="white"/>
    <path d="M835.709 189.544L821.632 177.574L865.963 125.443L901.248 155.448C905.043 158.675 907.922 161.798 909.885 164.82C911.874 167.862 913.078 170.803 913.496 173.643C913.94 176.505 913.657 179.272 912.648 181.944C911.686 184.613 910.141 187.2 908.011 189.704C906.14 191.904 904.189 193.558 902.159 194.664C900.153 195.792 898.114 196.499 896.041 196.784C894.014 197.066 891.961 197.02 889.882 196.646C887.802 196.273 885.765 195.695 883.771 194.914L883.325 230.035L866.858 216.033L867.4 183.413L852.034 170.346L835.709 189.544ZM893.848 177.529C894.708 176.517 895.3 175.539 895.624 174.594C895.974 173.671 896.002 172.714 895.71 171.725C895.44 170.71 894.834 169.629 893.893 168.48C892.978 167.353 891.698 166.09 890.054 164.692L870.78 148.302L861.294 159.457L880.568 175.847C882.212 177.245 883.664 178.305 884.924 179.028C886.209 179.772 887.363 180.208 888.386 180.338C889.431 180.442 890.381 180.247 891.236 179.754C892.117 179.282 892.987 178.541 893.848 177.529Z" fill="white"/>
    <path d="M973.379 260.655C973.038 259.256 972.495 257.484 971.75 255.34C971.006 253.196 970.044 250.867 968.862 248.352C967.706 245.816 966.3 243.186 964.643 240.462C963.011 237.717 961.135 235.067 959.014 232.512C957.318 230.469 955.801 228.772 954.465 227.421C953.149 226.097 951.976 225.021 950.944 224.195C949.934 223.393 949.045 222.816 948.276 222.461C947.554 222.111 946.925 221.9 946.389 221.826C945.854 221.753 945.403 221.782 945.037 221.913C944.693 222.07 944.405 222.244 944.175 222.434C943.409 223.071 943.05 224.016 943.099 225.27C943.173 226.503 943.532 227.975 944.174 229.685C944.843 231.374 945.705 233.269 946.759 235.372C947.839 237.452 948.979 239.657 950.177 241.984C951.423 244.316 952.66 246.742 953.888 249.261C955.163 251.784 956.284 254.305 957.253 256.824C958.243 259.368 959.023 261.893 959.592 264.398C960.187 266.882 960.448 269.276 960.375 271.58C960.303 273.884 959.818 276.055 958.922 278.094C958.025 280.133 956.593 281.969 954.626 283.602C952.097 285.701 949.554 287.057 946.998 287.669C944.442 288.28 941.912 288.352 939.409 287.884C936.927 287.441 934.487 286.554 932.087 285.224C929.713 283.871 927.421 282.279 925.209 280.447C923.019 278.64 920.938 276.679 918.965 274.562C917.013 272.471 915.21 270.429 913.556 268.436C909.23 263.225 905.656 258.036 902.834 252.869C900.008 247.75 897.824 242.961 896.28 238.503L908.85 228.068C909.814 233.18 911.602 238.428 914.215 243.81C916.849 249.219 920.287 254.478 924.528 259.587C927.031 262.602 929.22 264.927 931.096 266.563C933.019 268.203 934.668 269.359 936.044 270.029C937.446 270.677 938.6 270.95 939.505 270.845C940.411 270.74 941.132 270.465 941.669 270.02C942.512 269.32 942.922 268.333 942.899 267.057C942.901 265.761 942.581 264.257 941.938 262.547C941.32 260.816 940.472 258.909 939.392 256.828C938.337 254.726 937.174 252.52 935.903 250.209C934.679 247.903 933.427 245.511 932.148 243.034C930.869 240.558 929.709 238.069 928.668 235.567C927.673 233.07 926.853 230.6 926.207 228.159C925.587 225.696 925.288 223.334 925.309 221.072C925.356 218.79 925.802 216.65 926.648 214.653C927.519 212.636 928.938 210.81 930.905 209.177C933.23 207.247 935.574 205.991 937.939 205.409C940.304 204.827 942.647 204.738 944.967 205.142C947.334 205.55 949.641 206.354 951.888 207.553C954.156 208.777 956.332 210.229 958.416 211.908C960.5 213.587 962.478 215.397 964.349 217.339C966.22 219.281 967.929 221.185 969.478 223.05C971.174 225.094 972.811 227.273 974.388 229.589C975.987 231.93 977.464 234.307 978.819 236.72C980.201 239.112 981.455 241.48 982.581 243.825C983.729 246.195 984.723 248.433 985.565 250.539L973.379 260.655Z" fill="white"/>
</svg>
